<svg width="164" height="28" viewBox="0 0 164 28" fill="none" xmlns="http://www.w3.org/2000/svg">
<g filter="url(#filter0_d_101_50)">
<path d="M16.5938 8.875C17.8281 8.875 18.8867 8.92578 19.7695 9.02734C20.6523 9.12891 21.3945 9.28125 21.9961 9.48438C22.6055 9.67969 23.0898 9.92578 23.4492 10.2227C23.8086 10.5195 24.0859 10.8594 24.2812 11.2422C24.4766 11.6172 24.6016 12.0391 24.6562 12.5078C24.7188 12.9766 24.75 13.4844 24.75 14.0312C24.75 14.5781 24.6992 15.0938 24.5977 15.5781C24.5039 16.0547 24.332 16.4922 24.082 16.8906C23.832 17.2891 23.4922 17.6445 23.0625 17.957C22.6328 18.2695 22.0859 18.5352 21.4219 18.7539C20.7578 18.9727 19.957 19.1367 19.0195 19.2461C18.0898 19.3633 17 19.4219 15.75 19.4219H12.75C11.625 19.4219 10.6406 19.3789 9.79688 19.293C8.95312 19.207 8.22656 19.0781 7.61719 18.9062C7.00781 18.7266 6.50391 18.5039 6.10547 18.2383C5.70703 17.9648 5.38672 17.6484 5.14453 17.2891C4.91016 16.9219 4.74609 16.5078 4.65234 16.0469C4.55859 15.5781 4.51172 15.0625 4.51172 14.5H6.76172C6.76172 15.2031 6.86328 15.7539 7.06641 16.1523C7.26953 16.5508 7.60547 16.8516 8.07422 17.0547C8.54297 17.25 9.15625 17.375 9.91406 17.4297C10.6797 17.4766 11.625 17.5 12.75 17.5H15.75C17.0625 17.5 18.1523 17.4375 19.0195 17.3125C19.8867 17.1875 20.5781 16.9883 21.0938 16.7148C21.6094 16.4414 21.9727 16.0859 22.1836 15.6484C22.3945 15.2031 22.5 14.6641 22.5 14.0312C22.5 13.3984 22.4258 12.8711 22.2773 12.4492C22.1367 12.0273 21.8516 11.6914 21.4219 11.4414C21 11.1914 20.4023 11.0156 19.6289 10.9141C18.8555 10.8047 17.8438 10.75 16.5938 10.75H13.5C12.125 10.75 10.9453 10.6992 9.96094 10.5977C8.98438 10.4961 8.16406 10.3516 7.5 10.1641C6.83594 9.96875 6.30469 9.73047 5.90625 9.44922C5.50781 9.16016 5.20312 8.83203 4.99219 8.46484C4.78906 8.09766 4.65625 7.69141 4.59375 7.24609C4.53125 6.79297 4.5 6.30469 4.5 5.78125C4.5 5.23438 4.54688 4.72656 4.64062 4.25781C4.74219 3.78906 4.92578 3.36719 5.19141 2.99219C5.45703 2.60938 5.82031 2.26953 6.28125 1.97266C6.74219 1.67578 7.33203 1.42969 8.05078 1.23438C8.77734 1.03125 9.64844 0.878906 10.6641 0.777344C11.6797 0.675781 12.875 0.625 14.25 0.625H16.5C17.625 0.625 18.6094 0.667969 19.4531 0.753906C20.2969 0.832031 21.0234 0.960938 21.6328 1.14062C22.2422 1.3125 22.7461 1.53125 23.1445 1.79688C23.5508 2.05469 23.8711 2.36719 24.1055 2.73438C24.3477 3.09375 24.5156 3.50391 24.6094 3.96484C24.7031 4.42578 24.75 4.9375 24.75 5.5H22.5C22.5 4.79688 22.3984 4.24609 22.1953 3.84766C21.9922 3.44922 21.6562 3.15234 21.1875 2.95703C20.7188 2.75391 20.1016 2.62891 19.3359 2.58203C18.5703 2.52734 17.625 2.5 16.5 2.5H14.25C12.75 2.5 11.5156 2.55469 10.5469 2.66406C9.57812 2.76562 8.8125 2.94141 8.25 3.19141C7.6875 3.44141 7.29688 3.77734 7.07812 4.19922C6.85938 4.62109 6.75 5.14844 6.75 5.78125C6.75 6.17188 6.77734 6.51953 6.83203 6.82422C6.88672 7.12891 6.99609 7.39844 7.16016 7.63281C7.33203 7.85938 7.57031 8.05078 7.875 8.20703C8.17969 8.36328 8.58203 8.49219 9.08203 8.59375C9.58203 8.69531 10.1914 8.76953 10.9102 8.81641C11.6367 8.85547 12.5 8.875 13.5 8.875H16.5938ZM46.125 14.875H31.875L29.625 19H27L37.5 1H40.5L51 19H48.375L46.125 14.875ZM45 13L39 2.5L33 13H45ZM56.25 2.5V19H54V1H57.75L68.2383 16.75L78.7266 1H82.3125V19H80.0625V2.74609L69.375 19H67.1016L56.25 2.5ZM98.1562 8.875C99.3906 8.875 100.449 8.92578 101.332 9.02734C102.215 9.12891 102.957 9.28125 103.559 9.48438C104.168 9.67969 104.652 9.92578 105.012 10.2227C105.371 10.5195 105.648 10.8594 105.844 11.2422C106.039 11.6172 106.164 12.0391 106.219 12.5078C106.281 12.9766 106.312 13.4844 106.312 14.0312C106.312 14.5781 106.262 15.0938 106.16 15.5781C106.066 16.0547 105.895 16.4922 105.645 16.8906C105.395 17.2891 105.055 17.6445 104.625 17.957C104.195 18.2695 103.648 18.5352 102.984 18.7539C102.32 18.9727 101.52 19.1367 100.582 19.2461C99.6523 19.3633 98.5625 19.4219 97.3125 19.4219H94.3125C93.1875 19.4219 92.2031 19.3789 91.3594 19.293C90.5156 19.207 89.7891 19.0781 89.1797 18.9062C88.5703 18.7266 88.0664 18.5039 87.668 18.2383C87.2695 17.9648 86.9492 17.6484 86.707 17.2891C86.4727 16.9219 86.3086 16.5078 86.2148 16.0469C86.1211 15.5781 86.0742 15.0625 86.0742 14.5H88.3242C88.3242 15.2031 88.4258 15.7539 88.6289 16.1523C88.832 16.5508 89.168 16.8516 89.6367 17.0547C90.1055 17.25 90.7188 17.375 91.4766 17.4297C92.2422 17.4766 93.1875 17.5 94.3125 17.5H97.3125C98.625 17.5 99.7148 17.4375 100.582 17.3125C101.449 17.1875 102.141 16.9883 102.656 16.7148C103.172 16.4414 103.535 16.0859 103.746 15.6484C103.957 15.2031 104.062 14.6641 104.062 14.0312C104.062 13.3984 103.988 12.8711 103.84 12.4492C103.699 12.0273 103.414 11.6914 102.984 11.4414C102.562 11.1914 101.965 11.0156 101.191 10.9141C100.418 10.8047 99.4062 10.75 98.1562 10.75H95.0625C93.6875 10.75 92.5078 10.6992 91.5234 10.5977C90.5469 10.4961 89.7266 10.3516 89.0625 10.1641C88.3984 9.96875 87.8672 9.73047 87.4688 9.44922C87.0703 9.16016 86.7656 8.83203 86.5547 8.46484C86.3516 8.09766 86.2188 7.69141 86.1562 7.24609C86.0938 6.79297 86.0625 6.30469 86.0625 5.78125C86.0625 5.23438 86.1094 4.72656 86.2031 4.25781C86.3047 3.78906 86.4883 3.36719 86.7539 2.99219C87.0195 2.60938 87.3828 2.26953 87.8438 1.97266C88.3047 1.67578 88.8945 1.42969 89.6133 1.23438C90.3398 1.03125 91.2109 0.878906 92.2266 0.777344C93.2422 0.675781 94.4375 0.625 95.8125 0.625H98.0625C99.1875 0.625 100.172 0.667969 101.016 0.753906C101.859 0.832031 102.586 0.960938 103.195 1.14062C103.805 1.3125 104.309 1.53125 104.707 1.79688C105.113 2.05469 105.434 2.36719 105.668 2.73438C105.91 3.09375 106.078 3.50391 106.172 3.96484C106.266 4.42578 106.312 4.9375 106.312 5.5H104.062C104.062 4.79688 103.961 4.24609 103.758 3.84766C103.555 3.44922 103.219 3.15234 102.75 2.95703C102.281 2.75391 101.664 2.62891 100.898 2.58203C100.133 2.52734 99.1875 2.5 98.0625 2.5H95.8125C94.3125 2.5 93.0781 2.55469 92.1094 2.66406C91.1406 2.76562 90.375 2.94141 89.8125 3.19141C89.25 3.44141 88.8594 3.77734 88.6406 4.19922C88.4219 4.62109 88.3125 5.14844 88.3125 5.78125C88.3125 6.17188 88.3398 6.51953 88.3945 6.82422C88.4492 7.12891 88.5586 7.39844 88.7227 7.63281C88.8945 7.85938 89.1328 8.05078 89.4375 8.20703C89.7422 8.36328 90.1445 8.49219 90.6445 8.59375C91.1445 8.69531 91.7539 8.76953 92.4727 8.81641C93.1992 8.85547 94.0625 8.875 95.0625 8.875H98.1562ZM124.324 0.625C125.699 0.625 126.855 0.710938 127.793 0.882812C128.738 1.04688 129.516 1.30078 130.125 1.64453C130.734 1.98047 131.203 2.40625 131.531 2.92188C131.859 3.4375 132.098 4.04297 132.246 4.73828C132.402 5.43359 132.492 6.21875 132.516 7.09375C132.547 7.96875 132.562 8.9375 132.562 10C132.562 11.0625 132.547 12.0312 132.516 12.9062C132.492 13.7812 132.402 14.5664 132.246 15.2617C132.098 15.957 131.859 16.5625 131.531 17.0781C131.203 17.5938 130.734 18.0234 130.125 18.3672C129.516 18.7031 128.738 18.9531 127.793 19.1172C126.855 19.2891 125.699 19.375 124.324 19.375H117.551C116.176 19.375 115.016 19.2891 114.07 19.1172C113.133 18.9531 112.359 18.7031 111.75 18.3672C111.141 18.0234 110.668 17.5938 110.332 17.0781C110.004 16.5625 109.762 15.957 109.605 15.2617C109.457 14.5664 109.371 13.7812 109.348 12.9062C109.324 12.0312 109.312 11.0625 109.312 10C109.312 8.9375 109.324 7.96875 109.348 7.09375C109.371 6.21875 109.457 5.43359 109.605 4.73828C109.762 4.04297 110.004 3.4375 110.332 2.92188C110.668 2.40625 111.141 1.98047 111.75 1.64453C112.359 1.30078 113.133 1.04688 114.07 0.882812C115.016 0.710938 116.176 0.625 117.551 0.625H124.324ZM124.324 17.5C125.316 17.5 126.152 17.4727 126.832 17.418C127.52 17.3555 128.086 17.2344 128.531 17.0547C128.977 16.875 129.32 16.6172 129.562 16.2812C129.805 15.9453 129.98 15.5 130.09 14.9453C130.199 14.3906 130.262 13.7109 130.277 12.9062C130.301 12.0938 130.312 11.125 130.312 10C130.312 8.875 130.301 7.91016 130.277 7.10547C130.262 6.29297 130.199 5.60938 130.09 5.05469C129.98 4.5 129.805 4.05469 129.562 3.71875C129.32 3.38281 128.977 3.125 128.531 2.94531C128.094 2.76562 127.531 2.64844 126.844 2.59375C126.164 2.53125 125.324 2.5 124.324 2.5H117.551C116.551 2.5 115.707 2.53125 115.02 2.59375C114.34 2.64844 113.777 2.76562 113.332 2.94531C112.887 3.125 112.543 3.38281 112.301 3.71875C112.059 4.05469 111.883 4.5 111.773 5.05469C111.664 5.60938 111.602 6.29297 111.586 7.10547C111.57 7.91016 111.562 8.875 111.562 10C111.562 11.125 111.57 12.0938 111.586 12.9062C111.609 13.7109 111.676 14.3906 111.785 14.9453C111.895 15.5 112.066 15.9453 112.301 16.2812C112.543 16.6172 112.887 16.875 113.332 17.0547C113.777 17.2344 114.34 17.3555 115.02 17.418C115.707 17.4727 116.551 17.5 117.551 17.5H124.324ZM138.562 19H136.312V1H140.262L156.762 16.75V1H159.012V19H156.012L138.562 2.875V19Z" fill="#5A6B75"/>
</g>
<defs>
<filter id="filter0_d_101_50" x="0.5" y="0.625" width="162.512" height="26.7969" filterUnits="userSpaceOnUse" color-interpolation-filters="sRGB">
<feFlood flood-opacity="0" result="BackgroundImageFix"/>
<feColorMatrix in="SourceAlpha" type="matrix" values="0 0 0 0 0 0 0 0 0 0 0 0 0 0 0 0 0 0 127 0" result="hardAlpha"/>
<feOffset dy="4"/>
<feGaussianBlur stdDeviation="2"/>
<feComposite in2="hardAlpha" operator="out"/>
<feColorMatrix type="matrix" values="0 0 0 0 0 0 0 0 0 0 0 0 0 0 0 0 0 0 0.25 0"/>
<feBlend mode="normal" in2="BackgroundImageFix" result="effect1_dropShadow_101_50"/>
<feBlend mode="normal" in="SourceGraphic" in2="effect1_dropShadow_101_50" result="shape"/>
</filter>
</defs>
</svg>
